<?xml version="1.0" standalone="no"?>
<!DOCTYPE svg PUBLIC "-//W3C//DTD SVG 20010904//EN"
 "http://www.w3.org/TR/2001/REC-SVG-20010904/DTD/svg10.dtd">
<svg version="1.0" xmlns="http://www.w3.org/2000/svg"
 width="501.000000pt" height="501.000000pt" viewBox="0 0 501.000000 501.000000"
 preserveAspectRatio="xMidYMid meet">
<metadata>
Created by potrace 1.14, written by Peter Selinger 2001-2017
</metadata>
<g transform="translate(0.000000,501.000000) scale(0.100000,-0.100000)"
fill="#000000" stroke="none">
<path d="M2327 4794 c-2 -2 -32 -6 -68 -9 -72 -5 -104 -11 -119 -20 -6 -3 -10
-1 -10 5 0 7 -6 8 -17 1 -10 -5 -31 -11 -48 -14 -68 -12 -141 -28 -179 -39
-23 -6 -44 -12 -48 -14 -5 -1 -10 -3 -13 -4 -3 -1 -9 -4 -15 -5 -5 -1 -11 -3
-12 -4 -2 -2 -13 -4 -24 -6 -12 -3 -34 -10 -50 -16 -16 -7 -33 -13 -39 -15 -5
-1 -23 -7 -40 -14 -16 -6 -31 -11 -33 -10 -1 0 -15 -6 -30 -14 -15 -8 -94 -47
-175 -87 -81 -40 -156 -81 -167 -91 -11 -10 -21 -18 -24 -18 -11 0 -109 -68
-141 -97 -8 -7 -17 -13 -21 -13 -4 0 -19 -13 -35 -29 -15 -16 -29 -27 -32 -25
-2 3 -16 -9 -31 -26 -14 -17 -26 -29 -26 -26 0 3 -43 -37 -95 -88 -52 -52 -95
-97 -95 -101 0 -4 -13 -20 -30 -35 -16 -15 -30 -31 -30 -34 0 -3 -8 -14 -17
-24 -34 -35 -58 -67 -108 -142 -27 -41 -54 -78 -60 -82 -5 -4 -6 -8 -2 -8 4 0
3 -6 -3 -12 -16 -19 -53 -81 -56 -94 -1 -6 -9 -20 -18 -30 -9 -11 -16 -23 -15
-28 0 -5 -3 -12 -8 -15 -10 -6 -83 -155 -83 -168 0 -5 -6 -19 -13 -33 -8 -14
-20 -47 -27 -73 -8 -26 -17 -47 -21 -47 -3 0 -6 -6 -7 -12 -1 -15 -10 -52 -12
-55 -2 -2 -3 -6 -5 -10 -1 -5 -4 -15 -7 -23 -14 -39 -37 -129 -42 -164 -4 -21
-9 -43 -12 -48 -3 -5 -7 -28 -9 -51 -2 -23 -4 -42 -5 -42 -5 0 -22 -157 -23
-217 -1 -21 -5 -38 -10 -38 -4 0 -5 -6 0 -12 8 -13 7 -98 -2 -106 -2 -3 0 -12
5 -21 5 -10 5 -33 0 -54 -4 -20 -5 -37 -1 -37 4 0 7 -19 7 -42 2 -65 6 -108
15 -168 4 -30 11 -73 14 -96 3 -22 10 -55 15 -72 5 -18 6 -32 3 -32 -3 0 0 -6
6 -13 6 -8 8 -17 4 -20 -3 -4 0 -13 7 -22 7 -8 10 -15 6 -15 -3 0 0 -16 8 -35
8 -19 13 -35 11 -35 -3 0 7 -30 21 -67 14 -38 27 -77 30 -88 2 -11 8 -29 13
-40 28 -61 51 -116 51 -121 0 -11 65 -139 73 -142 4 -2 7 -9 7 -15 0 -7 18
-40 40 -75 22 -34 40 -67 40 -72 0 -6 5 -10 10 -10 6 0 10 -7 10 -15 0 -9 7
-18 15 -21 8 -4 15 -12 15 -19 0 -6 11 -25 25 -41 14 -16 25 -32 25 -36 0 -8
29 -45 62 -80 10 -10 18 -20 18 -23 0 -3 17 -23 38 -44 20 -22 60 -63 88 -93
28 -29 84 -82 124 -118 39 -36 78 -71 86 -78 8 -7 14 -11 14 -8 0 3 8 -2 18
-11 10 -10 31 -27 46 -38 16 -11 41 -30 56 -43 15 -12 33 -22 39 -22 6 0 11
-5 11 -11 0 -5 5 -7 10 -4 5 3 10 2 10 -3 0 -5 20 -20 45 -33 25 -13 45 -27
45 -30 0 -3 16 -11 35 -19 19 -8 35 -16 35 -19 0 -4 15 -12 32 -19 18 -7 41
-18 51 -23 77 -41 147 -72 162 -72 8 0 15 -3 15 -7 0 -5 51 -25 93 -36 4 -1 8
-2 10 -4 1 -1 9 -3 17 -5 8 -2 31 -9 50 -16 61 -21 65 -22 80 -24 8 -1 22 -5
30 -8 25 -11 163 -39 198 -40 17 -1 32 -4 32 -7 0 -3 8 -6 18 -6 9 -1 46 -5
82 -10 83 -11 454 -12 540 0 63 8 78 10 130 21 14 2 39 7 55 10 17 3 44 8 60
11 17 4 37 7 45 8 9 1 20 5 26 9 6 3 24 8 40 11 30 6 146 40 174 53 8 3 17 7
20 7 16 4 137 51 145 58 6 4 65 35 132 69 67 34 131 70 142 80 11 11 22 19 23
18 2 -2 23 11 47 27 24 16 51 34 60 39 9 6 18 12 21 15 3 3 27 21 54 40 26 19
69 53 94 75 99 87 312 306 312 321 0 3 11 17 25 32 14 15 51 65 83 112 31 47
60 87 65 88 4 2 5 8 1 13 -3 5 0 9 5 9 6 0 11 4 11 10 0 5 14 33 31 62 56 94
69 118 69 130 0 6 7 19 16 29 8 9 16 26 17 38 1 11 5 21 9 21 4 0 8 9 8 20 0
11 4 20 8 20 5 0 9 7 10 15 1 8 3 22 4 30 1 8 5 15 10 15 4 0 8 8 8 18 0 10 3
22 7 26 5 4 8 11 9 14 0 4 3 14 7 22 6 17 30 91 33 103 1 4 2 8 4 10 1 1 3 9
5 17 2 8 6 24 9 35 14 51 55 245 60 285 23 171 26 540 3 540 -6 0 -6 5 -1 13
9 12 9 36 0 87 -2 14 -7 43 -10 65 -3 22 -8 51 -12 65 -3 14 -7 34 -8 45 -2
11 -4 20 -6 20 -1 0 -3 9 -5 20 -1 11 -6 34 -9 50 -4 17 -8 36 -8 43 -1 6 -5
12 -10 12 -5 0 -7 4 -3 10 3 5 -1 25 -9 45 -8 19 -15 36 -15 38 0 1 -2 9 -5
17 -3 8 -12 37 -21 64 -8 26 -25 69 -37 95 -12 25 -21 52 -21 59 0 6 -4 12 -9
12 -4 0 -7 3 -6 8 2 7 -23 63 -32 72 -3 3 -6 10 -7 15 -3 21 -50 95 -56 90 -4
-3 -5 -2 -2 1 4 7 -22 65 -34 74 -3 3 -15 22 -26 43 -11 21 -28 47 -38 57 -9
11 -17 23 -17 27 0 5 -13 24 -30 43 -16 19 -29 40 -30 45 0 6 -8 17 -17 26
-10 8 -31 33 -48 54 -46 61 -304 316 -361 357 -28 21 -55 34 -59 30 -5 -4 -5
-1 -1 6 5 7 -1 15 -16 21 -13 5 -30 16 -37 25 -7 9 -18 16 -23 16 -5 0 -16 6
-23 13 -34 30 -43 35 -49 30 -3 -3 -8 2 -12 11 -3 9 -13 16 -21 16 -8 0 -26 9
-40 20 -14 11 -31 20 -39 20 -7 0 -14 3 -16 8 -4 10 -236 122 -261 126 -7 1
-17 5 -24 9 -19 12 -225 77 -245 77 -10 0 -18 4 -18 9 0 5 -8 8 -17 7 -9 -2
-35 3 -58 9 -22 7 -62 15 -90 19 -27 3 -63 8 -80 11 -16 2 -44 6 -62 9 -17 2
-37 7 -42 11 -6 3 -11 1 -11 -5 0 -7 -5 -8 -12 -3 -12 7 -394 14 -401 7z
m-1079 -1246 c7 -7 12 -20 12 -30 0 -10 5 -18 10 -18 6 0 10 -7 10 -15 0 -8
-4 -15 -9 -15 -5 0 -19 -11 -32 -25 -13 -13 -30 -25 -36 -25 -7 0 -13 -3 -13
-8 0 -8 -64 -38 -104 -48 -29 -7 -44 5 -68 52 -9 20 -12 37 -7 45 5 8 9 11 9
7 0 -4 17 2 38 14 70 41 147 77 163 78 8 0 20 -5 27 -12z m2284 -37 c-8 -22
-7 -31 1 -35 7 -2 4 -5 -5 -5 -25 -1 -28 10 -12 48 17 41 31 34 16 -8z m475
-15 c17 -7 17 -21 0 -38 -7 -7 -22 -28 -32 -46 -26 -43 -51 -50 -81 -21 -52
49 -14 118 62 113 21 -2 44 -6 51 -8z m-2506 -41 c17 3 34 6 37 6 20 3 28 -4
40 -33 7 -18 18 -41 23 -50 5 -10 9 -20 9 -23 0 -10 -25 -5 -54 10 -15 8 -41
15 -56 15 -24 0 -30 6 -43 44 -15 44 -11 71 5 41 6 -10 18 -13 39 -10z m1844
-7 c12 -31 11 -37 -28 -113 -23 -44 -46 -83 -52 -87 -5 -4 -6 -8 -1 -8 5 0 0
-10 -11 -22 -11 -13 -23 -31 -26 -40 -5 -15 -11 -16 -37 -7 -30 11 -30 12 -15
35 9 14 13 29 10 34 -3 6 -2 10 3 10 6 0 15 12 22 28 6 15 19 41 29 57 9 17
32 56 50 88 18 31 35 57 37 57 3 0 11 -15 19 -32z m-1595 -665 c0 -5 11 -21
25 -37 13 -16 22 -32 20 -36 -3 -5 1 -11 7 -13 7 -3 0 -6 -17 -7 -16 -1 -39
-3 -50 -6 -34 -7 -59 4 -71 30 -15 32 -1 53 41 65 39 12 45 12 45 4z m1507
-58 c20 -21 10 -45 -17 -38 -25 7 -34 19 -26 38 7 19 23 19 43 0z m183 -69
c20 -3 55 -12 78 -20 23 -8 42 -13 42 -9 0 3 6 0 13 -6 8 -6 17 -8 20 -4 4 3
7 1 7 -5 0 -7 7 -12 16 -12 13 0 14 -3 5 -14 -8 -9 -33 -14 -74 -14 -92 -1
-191 -10 -220 -21 -29 -11 -29 -7 -2 54 23 54 32 63 58 59 12 -2 38 -5 57 -8z
m-1474 -424 c9 -45 -13 -61 -38 -29 -21 26 -23 68 -6 85 16 16 35 -8 44 -56z
m1651 -346 c3 -2 -5 -13 -16 -23 -12 -9 -21 -23 -21 -30 0 -7 -3 -13 -7 -13
-16 0 -73 25 -73 32 0 4 0 10 0 13 0 3 2 5 5 5 2 1 16 7 30 14 24 12 71 14 82
2z"/>
</g>
</svg>
